<svg xmlns="http://www.w3.org/2000/svg" width="512" height="512" fill="none" viewBox="0 0 512 512"><path fill="url(#paint0_linear_5_23)" fill-rule="evenodd" d="M174.651 7.60554C131.979 -10.2137 92.1042 3.4836 61.2973 46.543C51.4943 60.2452 44.0525 73.703 39.3817 86.1755C30.6259 109.556 27.4413 120.595 24.9047 136.357C20.0248 166.681 20.5433 192.843 27.0845 246.37C30.493 274.262 32.787 287.65 38.9397 315.555C43.3602 335.605 45.573 348.553 48.158 369.499C51.0018 392.541 51.6541 400.894 51.8921 417.317C52.0887 430.884 52.3419 435.863 53.3174 445.345C54.2819 454.719 54.3959 456.488 54.303 460.639C54.16 467.042 53.158 478.732 52.1364 485.916C50.982 494.036 51.28 497.189 53.6727 502.167C57.7989 510.753 69.6131 514.666 77.3877 510.022C78.2556 509.504 78.7125 509.373 79.1797 509.508C85.426 511.316 91.5382 510.759 95.9447 507.98C97.5737 506.953 97.6105 506.913 102.501 500.816C119.223 479.973 141.145 466.734 188.574 448.837C227.625 434.103 251.159 426.967 289.682 418.181C343.877 405.821 358.369 401.918 384.318 392.701C432.297 375.658 461.99 351.913 481.827 314.728C487.973 303.207 491.09 291.934 490.442 283.573C489.442 270.693 478.263 245.961 468.519 235.076C448.733 212.974 422.261 198.603 391.039 193.018C361.323 187.702 329.756 189.267 302.212 197.425C279.656 204.104 250.931 217.98 232.908 230.902C231.218 232.114 229.467 233.367 229.016 233.686L228.197 234.266L232.237 226.071C236.932 216.544 238.207 213.276 241.374 202.637C244.921 190.73 249.798 167.959 251.672 154.56C255.379 128.07 253.865 110.193 245.877 86.1252C236.726 58.5552 230.017 47.1112 215.222 33.8389C204.534 24.2501 186.343 12.4886 174.651 7.60554ZM181.276 46.7326C185.005 49.0214 191.866 54.1759 196.046 57.8283C203.614 64.4406 209.872 75.593 216.598 94.4535C225.005 118.025 225.356 133.016 218.437 173.253C213.208 203.666 211.951 207.877 199.615 236.304C187.171 264.982 185.946 269.213 188.549 274.529C192.131 281.845 199.318 283.061 211.176 278.357C220.964 274.474 226.456 271.99 241.228 264.763C263.872 253.684 292.036 241.103 302.154 237.545C314.092 233.347 330.212 229.928 342.087 229.075C362.993 227.573 377.658 229.035 397.108 234.562C405.321 236.895 417.797 242.651 422.908 246.466C435.182 255.628 437.475 258.342 442.343 269.47C447.017 280.156 447.021 281.291 442.441 292.311C436.092 307.592 426.4 320.745 412.514 332.928C397.809 345.828 368.915 360.7 339.607 370.455C320.447 376.832 310.537 379.368 265.567 389.404C221.106 399.326 181.125 411.754 140.249 428.36C119.527 436.778 104.013 445.713 90.3175 457.118C88.2455 458.843 88.1833 458.877 88.0726 458.307C85.1176 443.101 85.1209 441.272 88.1387 418.757C91.0506 397.036 90.0212 354.412 85.8838 325.381C85.218 320.708 84.3999 315.546 81.7519 299.305C79.0624 282.809 74.8521 252.331 72.2173 230.285C67.132 187.734 67.0481 159.223 71.9359 134.598C78.4422 101.817 89.9923 77.5894 108.853 57.1607C130.992 33.1805 153.841 29.8905 181.276 46.7326Z" clip-rule="evenodd"/><defs><linearGradient id="paint0_linear_5_23" x1="82.943" x2="387.979" y1="32.638" y2="479.459" gradientUnits="userSpaceOnUse"><stop stop-color="#E4A0B7"/><stop offset="1" stop-color="#EFCFD4"/></linearGradient></defs></svg>