<svg width="510" height="510" viewBox="0 0 510 510" fill="none" xmlns="http://www.w3.org/2000/svg">
<path fill-rule="evenodd" clip-rule="evenodd" d="M229.183 107.608C124.526 114.076 36.9615 174.201 3.98123 262.239C-3.13027 281.223 -2.05475 284.817 18.3363 310.228C116.924 433.084 332.529 432.893 475.082 309.823C511.172 278.666 515.71 269.577 504.756 250.394C450.809 155.923 343.879 100.518 229.183 107.608ZM283.71 139.771C359.653 147.989 432.616 193.472 472.492 257.449L477.093 264.832L472.697 269.379C449.802 293.057 411.707 319.748 377.756 335.899C360.467 344.124 324.73 357.727 324.73 356.082C324.73 355.791 327.477 352.558 330.833 348.896C383.873 291.049 373.578 204.496 308.523 161.339C294.405 151.973 266.475 139.64 259.38 139.64C258.52 139.64 257.509 139.145 257.135 138.54C256.412 137.368 265.326 137.781 283.71 139.771ZM181.562 149.895C97.8115 192.038 80.1487 303.499 148.627 357.735C154.015 362.003 153.344 362.317 144.497 359.668C104.244 347.613 65.1314 320.517 39.6268 287.018L31.7069 276.616L33.1906 272.41C53.6357 214.432 108.129 167.326 176.91 148.172C193.314 143.604 193.747 143.764 181.562 149.895ZM267.638 172.063C385.456 217.753 330.079 397.748 209.391 361.386C114.543 332.808 110.204 210.535 202.67 172.017L213.175 167.641L235.686 168.021L258.197 168.402L267.638 172.063ZM247.877 212.92C262.151 250.487 222.401 272.473 193.023 243.26L184.876 235.159L182.817 238.175C154.351 279.851 209.356 329.628 264.673 312.249C312.605 297.191 307.685 227.004 257.521 210.24C245.871 206.347 245.426 206.471 247.877 212.92Z" fill="#41403E"/>
</svg>
