<svg width="470" height="370" viewBox="0 0 470 370" fill="none" xmlns="http://www.w3.org/2000/svg">
<path fill-rule="evenodd" clip-rule="evenodd" d="M76.9728 102.06C73.5066 103.078 71.7607 105.872 72.0099 110C72.0892 111.314 72.2997 112.497 72.63 113.484C73.249 115.333 73.5989 116.16 74.2205 117.241C75.4164 119.322 76.7352 120.884 79.7658 123.81C81.345 125.335 82.1429 126.035 83.8893 127.425C85.1441 128.424 85.9155 129.101 87.1029 130.245C88.4093 131.504 88.8598 131.978 89.6823 132.963C90.3618 133.777 90.6221 134.067 91.1479 134.594C91.6676 135.115 91.7616 135.217 91.9602 135.474C92.2666 135.869 92.7809 136.628 93.0724 137.114C93.4019 137.664 93.5751 137.84 93.9652 138.025C94.6381 138.343 95.5476 137.999 95.7909 137.335C95.818 137.26 95.8393 137.23 95.8743 137.215C96.3423 137.018 96.6858 136.683 96.8165 136.298C96.8648 136.155 96.8651 136.151 96.8619 135.54C96.8511 133.453 97.53 131.571 99.5277 128.151C101.172 125.335 102.249 123.744 104.155 121.316C106.836 117.899 107.523 116.949 108.644 115.113C110.717 111.718 111.351 108.816 110.725 105.584C110.531 104.582 110.165 103.745 109.715 103.269C109.02 102.537 107.125 101.586 105.998 101.405C103.71 101.037 101.396 101.468 99.227 102.665C97.1621 103.804 95.3236 105.452 94.0534 107.303C93.0133 108.818 91.9529 111.073 91.4949 112.744C91.4521 112.901 91.4074 113.063 91.3958 113.105L91.3746 113.18L91.2165 112.484C91.0327 111.675 90.9493 111.414 90.618 110.612C90.2473 109.715 89.423 108.094 88.8774 107.188C87.799 105.398 86.8275 104.388 85.1585 103.321C83.2467 102.098 82.2765 101.733 80.7256 101.656C79.6052 101.6 77.9226 101.781 76.9728 102.06ZM79.3 104.109C79.6389 104.064 80.3089 104.039 80.7423 104.055C81.5269 104.084 82.4553 104.453 83.7915 105.267C85.4615 106.283 86.2204 107.176 87.7803 109.958C88.9593 112.061 89.0903 112.378 89.7404 114.71C90.3963 117.063 90.5301 117.38 90.9497 117.574C91.527 117.842 92.0229 117.562 92.5111 116.693C92.914 115.976 93.125 115.555 93.6659 114.39C94.4949 112.603 95.585 110.454 96.0239 109.74C96.5419 108.898 97.3519 107.898 98.0305 107.262C99.2253 106.142 100.187 105.509 101.639 104.887C102.253 104.625 103.293 104.36 103.791 104.34C104.986 104.292 105.259 104.344 106.102 104.78C106.911 105.198 106.968 105.267 107.232 106.161C107.598 107.401 107.657 108.676 107.414 110.098C107.157 111.605 106.135 113.929 104.836 115.963C103.987 117.293 103.511 117.934 101.276 120.756C99.0658 123.546 97.251 126.267 95.5875 129.286C94.7442 130.816 94.2424 132.122 93.9725 133.488C93.9316 133.695 93.9295 133.7 93.8947 133.671C92.9672 132.893 92.8775 132.782 91.9528 131.267C91.0607 129.806 88.901 127.27 87.2215 125.712C86.9512 125.461 86.6476 125.188 85.6878 124.333C84.7129 123.464 82.9578 121.822 81.7132 120.613C79.311 118.281 77.9031 116.555 76.988 114.82C75.77 112.511 75.2788 110.473 75.4182 108.305C75.5818 105.76 76.8065 104.436 79.3 104.109Z" fill="#808080" fill-opacity="0.2"/>
<path fill-rule="evenodd" clip-rule="evenodd" d="M320.645 300.594C317.311 299.202 314.196 300.272 311.789 303.636C311.023 304.707 310.442 305.758 310.077 306.732C309.393 308.559 309.144 309.422 308.946 310.653C308.564 313.022 308.605 315.066 309.116 319.248C309.382 321.427 309.561 322.473 310.042 324.653C310.387 326.219 310.56 327.231 310.762 328.867C310.984 330.667 311.035 331.32 311.054 332.603C311.069 333.663 311.089 334.052 311.165 334.793C311.241 335.525 311.25 335.663 311.242 335.987C311.231 336.488 311.153 337.401 311.073 337.962C310.983 338.597 311.006 338.843 311.193 339.232C311.516 339.903 312.439 340.208 313.046 339.846C313.114 339.805 313.149 339.795 313.186 339.805C313.674 339.947 314.151 339.903 314.496 339.686C314.623 339.606 314.626 339.603 315.008 339.126C316.314 337.498 318.027 336.464 321.732 335.065C324.783 333.914 326.622 333.357 329.631 332.67C333.865 331.705 334.998 331.4 337.025 330.68C340.773 329.348 343.093 327.493 344.643 324.588C345.123 323.688 345.366 322.807 345.316 322.154C345.238 321.148 344.364 319.216 343.603 318.365C342.057 316.639 339.989 315.516 337.55 315.08C335.228 314.664 332.762 314.786 330.61 315.424C328.848 315.946 326.604 317.03 325.196 318.039C325.064 318.134 324.927 318.232 324.892 318.257L324.828 318.302L325.143 317.662C325.51 316.917 325.61 316.662 325.857 315.831C326.134 314.901 326.515 313.122 326.662 312.075C326.951 310.005 326.833 308.609 326.209 306.729C325.494 304.575 324.97 303.681 323.814 302.644C322.979 301.895 321.558 300.976 320.645 300.594ZM321.162 303.651C321.453 303.83 321.989 304.232 322.316 304.518C322.907 305.034 323.396 305.906 323.922 307.379C324.579 309.221 324.606 310.392 324.065 313.535C323.657 315.911 323.559 316.24 322.595 318.461C321.623 320.702 321.527 321.032 321.73 321.448C322.01 322.019 322.572 322.114 323.498 321.747C324.263 321.443 324.692 321.249 325.846 320.685C327.615 319.819 329.815 318.836 330.606 318.558C331.538 318.23 332.798 317.963 333.726 317.896C335.359 317.779 336.505 317.893 338.024 318.325C338.666 318.507 339.64 318.957 340.04 319.255C340.999 319.971 341.178 320.183 341.558 321.052C341.923 321.887 341.924 321.976 341.566 322.837C341.07 324.031 340.312 325.058 339.228 326.01C338.079 327.018 335.821 328.18 333.532 328.942C332.035 329.44 331.261 329.638 327.747 330.422C324.274 331.197 321.15 332.168 317.957 333.466C316.338 334.123 315.126 334.821 314.056 335.712C313.894 335.847 313.889 335.85 313.881 335.805C313.65 334.617 313.65 334.474 313.886 332.715C314.113 331.018 314.033 327.688 313.71 325.42C313.658 325.055 313.594 324.652 313.387 323.383C313.177 322.094 312.848 319.713 312.642 317.991C312.245 314.667 312.238 312.439 312.62 310.515C313.128 307.954 314.031 306.062 315.504 304.466C317.234 302.592 319.019 302.335 321.162 303.651Z" fill="#808080" fill-opacity="0.2"/>
<path fill-rule="evenodd" clip-rule="evenodd" d="M369.658 54.3208C367.331 57.0837 367.417 60.3765 369.905 63.6812C370.696 64.7328 371.525 65.6027 372.345 66.243C373.883 67.4433 374.631 67.9393 375.746 68.4976C377.892 69.5716 379.854 70.1459 383.996 70.9123C386.155 71.3117 387.207 71.4543 389.431 71.6495C391.028 71.7897 392.045 71.9281 393.667 72.2261C395.451 72.554 396.089 72.701 397.318 73.068C398.334 73.3712 398.711 73.469 399.441 73.6184C400.162 73.7661 400.296 73.799 400.604 73.9032C401.077 74.0639 401.925 74.4124 402.437 74.6568C403.015 74.9331 403.257 74.9847 403.684 74.923C404.42 74.8166 404.989 74.0278 404.825 73.3396C404.807 73.2627 404.807 73.2256 404.829 73.194C405.11 72.7708 405.211 72.3022 405.107 71.9087C405.069 71.7632 405.067 71.7595 404.727 71.2522C403.565 69.5177 403.092 67.5736 402.869 63.6195C402.686 60.3639 402.706 58.4427 402.953 55.3658C403.302 51.037 403.35 49.8655 403.271 47.7156C403.125 43.7405 402.051 40.9713 399.744 38.6217C399.029 37.8937 398.262 37.3973 397.624 37.2498C396.64 37.0226 394.535 37.2764 393.496 37.7476C391.385 38.7045 389.694 40.3408 388.546 42.5369C387.454 44.6271 386.831 47.0165 386.794 49.2604C386.763 51.098 387.124 53.5639 387.665 55.2099C387.716 55.3642 387.768 55.5241 387.782 55.5652L387.806 55.6399L387.29 55.1468C386.689 54.5736 386.476 54.4021 385.757 53.9168C384.953 53.3735 383.37 52.4766 382.415 52.023C380.528 51.1262 379.16 50.8203 377.179 50.8518C374.91 50.8879 373.9 51.1198 372.564 51.9116C371.599 52.4836 370.296 53.5638 369.658 54.3208ZM372.73 54.7436C372.988 54.5193 373.532 54.1288 373.903 53.9028C374.573 53.4936 375.55 53.2885 377.114 53.229C379.067 53.1546 380.193 53.4797 383.03 54.9379C385.174 56.0401 385.458 56.2324 387.288 57.8178C389.134 59.417 389.42 59.6075 389.878 59.538C390.507 59.4424 390.766 58.9353 390.693 57.9413C390.633 57.1208 390.576 56.6533 390.384 55.3831C390.089 53.4359 389.811 51.0421 389.783 50.2046C389.749 49.2165 389.872 47.935 390.087 47.03C390.465 45.4367 390.917 44.3779 391.785 43.0578C392.151 42.5004 392.872 41.7054 393.276 41.4138C394.247 40.7136 394.503 40.6063 395.446 40.5042C396.352 40.4062 396.437 40.4324 397.151 41.032C398.141 41.8631 398.894 42.8936 399.477 44.2139C400.094 45.6121 400.525 48.114 400.566 50.5268C400.592 52.1042 400.549 52.9022 400.244 56.4889C399.941 60.035 399.931 63.306 400.211 66.7415C400.353 68.4831 400.656 69.8486 401.185 71.1366C401.265 71.3314 401.266 71.3368 401.221 71.3317C400.018 71.1957 399.882 71.1527 398.275 70.4003C396.724 69.6744 393.523 68.7526 391.263 68.3809C390.899 68.3211 390.495 68.2611 389.222 68.078C387.93 67.892 385.56 67.4918 383.855 67.1717C380.564 66.5539 378.438 65.8923 376.717 64.9511C374.426 63.6983 372.891 62.2699 371.81 60.3857C370.542 58.1738 370.832 56.3939 372.73 54.7436Z" fill="#808080" fill-opacity="0.2"/>
<rect x="217" y="255.607" width="15" height="15" transform="rotate(-45 217 255.607)" stroke="#808080" stroke-opacity="0.2" stroke-width="3"/>
<rect x="49" y="39" width="15" height="15" stroke="#808080" stroke-opacity="0.2" stroke-width="3"/>
<rect x="97.8353" y="285" width="15" height="15" transform="rotate(27.1091 97.8353 285)" stroke="#808080" stroke-opacity="0.2" stroke-width="3"/>
<circle cx="215.5" cy="97.5" r="7.5" stroke="#808080" stroke-opacity="0.2" stroke-width="3"/>
<circle cx="159.5" cy="173.5" r="7.5" stroke="#808080" stroke-opacity="0.2" stroke-width="3"/>
<circle cx="402.5" cy="212.5" r="7.5" stroke="#808080" stroke-opacity="0.2" stroke-width="3"/>
<path d="M353.819 102.965L353.18 108.928L358.443 111.193L352.786 112.613L352.147 118.576L349.289 113.49L343.631 114.911L347.523 110.348L344.665 105.263L349.928 107.528L353.819 102.965Z" stroke="#808080" stroke-opacity="0.2" stroke-width="3"/>
<path d="M55.1173 212.339L59.8763 215.988L64.5494 212.673L62.8175 218.243L67.5764 221.892L61.747 221.686L60.015 227.256L58.1443 221.558L52.3149 221.352L56.988 218.037L55.1173 212.339Z" stroke="#808080" stroke-opacity="0.2" stroke-width="3"/>
<path d="M425.5 324.919L423.078 330.405L427.403 334.163L421.582 333.796L419.16 339.282L417.984 333.569L412.162 333.202L417.257 330.038L416.081 324.325L420.405 328.083L425.5 324.919Z" stroke="#808080" stroke-opacity="0.2" stroke-width="3"/>
<path d="M271.266 190.858L281.753 201.595L267.221 205.311L271.266 190.858Z" stroke="#808080" stroke-opacity="0.2" stroke-width="3"/>
<path d="M164.772 339.057L155.08 350.516L150 336.402L164.772 339.057Z" stroke="#808080" stroke-opacity="0.2" stroke-width="3"/>
<path d="M229.752 23.5432L230.221 38.5442L217 31.4578L229.752 23.5432Z" stroke="#808080" stroke-opacity="0.2" stroke-width="3"/>
<path d="M445.089 94.9469L452.16 102.018L445.089 109.089L452.16 116.16L445.089 123.231" stroke="#808080" stroke-opacity="0.2" stroke-width="3"/>
<path d="M17 180.63L18.9143 170.815L28.7294 172.729L30.6437 162.914L40.4588 164.829" stroke="#808080" stroke-opacity="0.2" stroke-width="3"/>
</svg>
