<svg width="390" height="62" viewBox="0 0 390 62" fill="none" xmlns="http://www.w3.org/2000/svg">
<path d="M80.0781 22.9688L80.8516 26.1328C79.5859 26.2266 77.6406 26.4844 75.0156 26.9062C72.3906 27.2812 70.4219 27.5156 69.1094 27.6094C69.3438 29.25 69.4844 31.4062 69.5312 34.0781C69.5781 36.75 69.625 39.0703 69.6719 41.0391C69.7656 42.9609 69.9766 44.9062 70.3047 46.875C70.6797 48.7969 71.4062 50.2734 72.4844 51.3047C73.6094 52.3359 75.1094 52.8516 76.9844 52.8516C78.3906 52.8516 80.1484 52.5234 82.2578 51.8672C83.1484 53.6016 83.8047 54.8672 84.2266 55.6641C80.5234 56.9766 76.7734 57.6328 72.9766 57.6328C71.5703 57.6328 70.3516 57.2109 69.3203 56.3672C68.2891 55.5234 67.4922 54.4688 66.9297 53.2031C66.3672 51.9375 65.8984 50.3438 65.5234 48.4219C65.1953 46.4531 64.9844 44.6016 64.8906 42.8672C64.7969 41.1328 64.75 39.1406 64.75 36.8906C64.75 35.6719 64.75 33.9844 64.75 31.8281C64.7969 29.6719 64.8203 28.1953 64.8203 27.3984C64.3516 27.4453 63.25 27.4922 61.5156 27.5391C59.7812 27.5391 58.7734 27.5391 58.4922 27.5391C58.1641 24.3984 58 22.7812 58 22.6875C58.3281 22.7812 58.8672 22.8281 59.6172 22.8281C60.0391 22.8281 60.7188 22.8047 61.6562 22.7578C62.5938 22.6641 63.2969 22.6172 63.7656 22.6172C63.9531 22.6172 64.1875 22.6406 64.4688 22.6875C64.7969 22.6875 65.0078 22.6875 65.1016 22.6875C65.2891 17.5312 65.5 13.3359 65.7344 10.1016L68.8984 10.875C68.9453 12 68.9688 13.2188 68.9688 14.5312C69.0156 15.7969 69.0391 17.2266 69.0391 18.8203C69.0859 20.3672 69.1094 21.5625 69.1094 22.4062C70.3281 22.5 72.1562 22.5938 74.5938 22.6875C77.0312 22.7812 78.8594 22.875 80.0781 22.9688ZM87.3906 6.375L91.0469 7.21875C91.1875 9.14063 91.2812 12.2109 91.3281 16.4297C91.4219 20.6484 91.5156 23.5547 91.6094 25.1484C94.1406 22.4766 97.1875 21.1406 100.75 21.1406C103.938 21.1406 106.68 22.2656 108.977 24.5156C111.32 26.7656 112.492 29.7656 112.492 33.5156V56.6484C111.883 56.9297 111.109 57.0703 110.172 57.0703C109.141 57.0703 108.203 56.9766 107.359 56.7891C107.359 56.4141 107.359 55.8516 107.359 55.1016C107.406 54.3047 107.43 53.7188 107.43 53.3438C107.43 51.5156 107.359 48.375 107.219 43.9219C107.078 39.4219 107.008 35.6719 107.008 32.6719C106.305 28.3594 104.125 26.2031 100.469 26.2031C98.875 26.2031 97.3047 26.6484 95.7578 27.5391C94.2109 28.3828 93.0859 29.3906 92.3828 30.5625C92.5234 33.5156 92.6172 37.9688 92.6641 43.9219C92.7109 49.875 92.7812 54.1641 92.875 56.7891C91.75 56.9766 90.7891 57.0703 89.9922 57.0703C88.8203 57.0703 87.8359 56.9297 87.0391 56.6484C87.1328 54.3516 87.1797 50.7188 87.1797 45.75C87.1797 43.5469 87.1562 39.5156 87.1094 33.6562C87.0625 27.75 87.0391 22.6875 87.0391 18.4688C87.0859 14.2031 87.2031 10.1719 87.3906 6.375ZM146.594 50.1797L147.297 53.2734C145.234 54.0234 142.164 54.8672 138.086 55.8047C134.055 56.6953 131.055 57.1406 129.086 57.1406C127.07 57.1406 125.312 56.4844 123.812 55.1719C122.312 53.8125 121.188 52.1016 120.438 50.0391C119.688 47.9297 119.125 45.8672 118.75 43.8516C118.422 41.7891 118.258 39.7734 118.258 37.8047C118.258 26.0859 123.555 20.2266 134.148 20.2266C136.68 20.2266 138.906 21.0469 140.828 22.6875C142.75 24.2812 143.711 26.3672 143.711 28.9453C143.711 30.3516 143.312 31.5938 142.516 32.6719C141.766 33.75 140.828 34.6172 139.703 35.2734C138.625 35.8828 137.219 36.4453 135.484 36.9609C133.797 37.4766 132.297 37.8516 130.984 38.0859C129.672 38.3203 128.102 38.5781 126.273 38.8594C124.445 39.1406 123.18 39.3516 122.477 39.4922C122.523 40.8516 122.594 42.0469 122.688 43.0781C122.828 44.1094 123.062 45.2344 123.391 46.4531C123.766 47.625 124.234 48.6094 124.797 49.4062C125.406 50.1562 126.227 50.7891 127.258 51.3047C128.289 51.8203 129.508 52.0781 130.914 52.0781C132.602 52.0781 134.664 51.9375 137.102 51.6562C139.539 51.3281 141.695 51 143.57 50.6719C145.492 50.3438 146.5 50.1797 146.594 50.1797ZM122.758 35.1328C129.133 33.3047 134.359 31.3828 138.438 29.3672C138.109 27.8203 137.664 26.6953 137.102 25.9922C136.539 25.2891 135.695 24.9375 134.57 24.9375C131.711 24.9375 129.109 25.9219 126.766 27.8906C124.469 29.8594 123.133 32.2734 122.758 35.1328ZM173.312 30.2109L170.219 30C169.234 27.375 167.57 26.0625 165.227 26.0625C164.195 26.0625 163.094 26.2969 161.922 26.7656C160.797 27.2344 159.859 27.7266 159.109 28.2422C158.359 28.7109 157.375 29.4141 156.156 30.3516C156.156 31.0078 156.133 33.1406 156.086 36.75C156.086 40.3594 156.109 44.3672 156.156 48.7734C156.25 53.1797 156.344 55.5469 156.438 55.875C156.016 57.2812 155.195 57.9844 153.977 57.9844C153.133 57.9844 152.312 57.6562 151.516 57C150.766 56.2969 150.297 55.4531 150.109 54.4688C151 39.4219 151.797 28.0547 152.5 20.3672L155.664 21.0703L155.875 25.7812C159.156 23.0625 161.969 21.7031 164.312 21.7031C166.891 21.7031 169.047 22.2891 170.781 23.4609C172.562 24.6328 173.453 26.3438 173.453 28.5938C173.453 29.2969 173.406 29.8359 173.312 30.2109ZM204.602 50.1797L205.305 53.2734C203.242 54.0234 200.172 54.8672 196.094 55.8047C192.062 56.6953 189.062 57.1406 187.094 57.1406C185.078 57.1406 183.32 56.4844 181.82 55.1719C180.32 53.8125 179.195 52.1016 178.445 50.0391C177.695 47.9297 177.133 45.8672 176.758 43.8516C176.43 41.7891 176.266 39.7734 176.266 37.8047C176.266 26.0859 181.562 20.2266 192.156 20.2266C194.688 20.2266 196.914 21.0469 198.836 22.6875C200.758 24.2812 201.719 26.3672 201.719 28.9453C201.719 30.3516 201.32 31.5938 200.523 32.6719C199.773 33.75 198.836 34.6172 197.711 35.2734C196.633 35.8828 195.227 36.4453 193.492 36.9609C191.805 37.4766 190.305 37.8516 188.992 38.0859C187.68 38.3203 186.109 38.5781 184.281 38.8594C182.453 39.1406 181.188 39.3516 180.484 39.4922C180.531 40.8516 180.602 42.0469 180.695 43.0781C180.836 44.1094 181.07 45.2344 181.398 46.4531C181.773 47.625 182.242 48.6094 182.805 49.4062C183.414 50.1562 184.234 50.7891 185.266 51.3047C186.297 51.8203 187.516 52.0781 188.922 52.0781C190.609 52.0781 192.672 51.9375 195.109 51.6562C197.547 51.3281 199.703 51 201.578 50.6719C203.5 50.3438 204.508 50.1797 204.602 50.1797ZM180.766 35.1328C187.141 33.3047 192.367 31.3828 196.445 29.3672C196.117 27.8203 195.672 26.6953 195.109 25.9922C194.547 25.2891 193.703 24.9375 192.578 24.9375C189.719 24.9375 187.117 25.9219 184.773 27.8906C182.477 29.8594 181.141 32.2734 180.766 35.1328ZM206.781 18.8906L206.641 16.7109C210.016 15.5391 211.703 13.9453 211.703 11.9297C211.703 11.5547 211.609 10.9922 211.422 10.2422C210.766 10.3359 210.32 10.3828 210.086 10.3828C209.195 10.3828 208.492 9.79687 207.977 8.625C207.461 7.40625 207.203 6.25781 207.203 5.17969C207.203 4.14844 207.414 3.32812 207.836 2.71875C208.258 2.0625 208.867 1.73438 209.664 1.73438C211.445 1.73438 212.875 2.76562 213.953 4.82812C215.031 6.89063 215.57 8.95312 215.57 11.0156C215.57 13.2188 214.844 15.0469 213.391 16.5C211.938 17.9531 209.734 18.75 206.781 18.8906ZM241.516 23.1094L240.812 25.9219C236.266 24.0469 232.727 23.1094 230.195 23.1094C227.945 23.1094 226.352 23.4609 225.414 24.1641C224.523 24.8203 224.078 26.25 224.078 28.4531C224.078 30.2344 224.711 31.7109 225.977 32.8828C227.289 34.0547 228.859 34.9922 230.688 35.6953C232.516 36.3516 234.344 37.0781 236.172 37.875C238.047 38.625 239.617 39.75 240.883 41.25C242.195 42.75 242.852 44.6016 242.852 46.8047C242.852 49.8047 241.75 52.4297 239.547 54.6797C237.344 56.9297 234.484 58.0781 230.969 58.125C228.391 58.125 225.977 57.5859 223.727 56.5078C221.477 55.4297 219.695 54.0703 218.383 52.4297L220.422 50.3203C220.984 50.5547 221.805 50.9297 222.883 51.4453C224.008 51.9609 224.805 52.3125 225.273 52.5C225.742 52.6406 226.422 52.8047 227.312 52.9922C228.25 53.1797 229.234 53.2734 230.266 53.2734C232.469 53.2734 234.273 52.7812 235.68 51.7969C237.086 50.8125 237.789 49.4297 237.789 47.6484C237.789 46.4766 237.461 45.4922 236.805 44.6953C236.148 43.8516 235.281 43.1719 234.203 42.6562C233.125 42.1406 231.93 41.6484 230.617 41.1797C229.352 40.7109 228.062 40.1953 226.75 39.6328C225.484 39.0234 224.312 38.3203 223.234 37.5234C222.156 36.6797 221.289 35.5547 220.633 34.1484C219.977 32.7422 219.648 31.0781 219.648 29.1562C219.648 26.3438 220.398 24 221.898 22.125C223.445 20.2031 225.602 19.2422 228.367 19.2422C229.445 19.2422 230.664 19.4063 232.023 19.7344C233.383 20.0625 234.461 20.3672 235.258 20.6484C236.055 20.9297 237.227 21.3984 238.773 22.0547C240.367 22.6641 241.281 23.0156 241.516 23.1094ZM290.945 22.125L290.594 25.1484C288.625 24.8672 286.938 24.7266 285.531 24.7266C282.297 24.7266 279.625 25.7109 277.516 27.6797C275.406 29.6016 273.953 31.8984 273.156 34.5703C272.406 37.1953 272.031 40.125 272.031 43.3594C272.031 44.8594 272.125 46.1953 272.312 47.3672C272.5 48.5391 272.828 49.6875 273.297 50.8125C273.812 51.9375 274.586 52.8281 275.617 53.4844C276.695 54.0938 278.008 54.3984 279.555 54.3984C281.617 54.3984 284.242 54 287.43 53.2031C288.414 52.8281 289.188 52.6406 289.75 52.6406C290.875 52.6406 291.555 53.9531 291.789 56.5781C287.664 57.8906 283.844 58.5469 280.328 58.5469C275.219 58.5469 271.75 57.3047 269.922 54.8203C268.141 52.2891 267.25 48.2109 267.25 42.5859C267.25 39.3047 267.461 36.4453 267.883 34.0078C268.352 31.5234 269.148 29.2266 270.273 27.1172C271.398 24.9609 273.016 23.3203 275.125 22.1953C277.281 21.0703 279.906 20.5078 283 20.5078C286.469 20.5078 289.117 21.0469 290.945 22.125ZM297.906 26.625L296.5 23.0391C297.719 21.8203 299.266 20.8594 301.141 20.1562C303.016 19.4063 304.867 19.0312 306.695 19.0312C314.617 19.0312 318.578 25.875 318.578 39.5625C318.578 41.4375 318.461 44.2031 318.227 47.8594C318.039 51.5156 317.945 54.2578 317.945 56.0859C317.57 57.5391 316.844 58.2656 315.766 58.2656C314.922 58.2656 314.148 57.8438 313.445 57C312.742 56.1562 312.391 55.2188 312.391 54.1875C312.391 53.8594 312.414 53.625 312.461 53.4844C309.555 56.2969 306.461 57.7031 303.18 57.7031C300.695 57.7031 298.516 56.8125 296.641 55.0312C294.812 53.2031 293.898 51 293.898 48.4219C293.898 44.0625 295.586 40.125 298.961 36.6094C302.383 33.0938 306.25 31.3359 310.562 31.3359C310.75 31.3359 310.938 31.3594 311.125 31.4062C311.312 31.4062 311.523 31.4297 311.758 31.4766C312.039 31.5234 312.25 31.5469 312.391 31.5469C312.016 26.0625 309.836 23.3203 305.852 23.3203C303.508 23.3203 300.859 24.4219 297.906 26.625ZM312.602 48.6328C312.695 45.3516 312.742 42.8672 312.742 41.1797C312.742 39.7734 312.695 37.8047 312.602 35.2734H312.039C308.711 35.3203 305.664 36.5625 302.898 39C300.18 41.4375 298.82 44.3906 298.82 47.8594C298.82 49.3594 299.266 50.5547 300.156 51.4453C301.094 52.3359 302.219 52.7812 303.531 52.7812C305.594 52.7812 308.617 51.3984 312.602 48.6328ZM347.477 30.2109L344.383 30C343.398 27.375 341.734 26.0625 339.391 26.0625C338.359 26.0625 337.258 26.2969 336.086 26.7656C334.961 27.2344 334.023 27.7266 333.273 28.2422C332.523 28.7109 331.539 29.4141 330.32 30.3516C330.32 31.0078 330.297 33.1406 330.25 36.75C330.25 40.3594 330.273 44.3672 330.32 48.7734C330.414 53.1797 330.508 55.5469 330.602 55.875C330.18 57.2812 329.359 57.9844 328.141 57.9844C327.297 57.9844 326.477 57.6562 325.68 57C324.93 56.2969 324.461 55.4531 324.273 54.4688C325.164 39.4219 325.961 28.0547 326.664 20.3672L329.828 21.0703L330.039 25.7812C333.32 23.0625 336.133 21.7031 338.477 21.7031C341.055 21.7031 343.211 22.2891 344.945 23.4609C346.727 24.6328 347.617 26.3438 347.617 28.5938C347.617 29.2969 347.57 29.8359 347.477 30.2109ZM378.766 50.1797L379.469 53.2734C377.406 54.0234 374.336 54.8672 370.258 55.8047C366.227 56.6953 363.227 57.1406 361.258 57.1406C359.242 57.1406 357.484 56.4844 355.984 55.1719C354.484 53.8125 353.359 52.1016 352.609 50.0391C351.859 47.9297 351.297 45.8672 350.922 43.8516C350.594 41.7891 350.43 39.7734 350.43 37.8047C350.43 26.0859 355.727 20.2266 366.32 20.2266C368.852 20.2266 371.078 21.0469 373 22.6875C374.922 24.2812 375.883 26.3672 375.883 28.9453C375.883 30.3516 375.484 31.5938 374.688 32.6719C373.938 33.75 373 34.6172 371.875 35.2734C370.797 35.8828 369.391 36.4453 367.656 36.9609C365.969 37.4766 364.469 37.8516 363.156 38.0859C361.844 38.3203 360.273 38.5781 358.445 38.8594C356.617 39.1406 355.352 39.3516 354.648 39.4922C354.695 40.8516 354.766 42.0469 354.859 43.0781C355 44.1094 355.234 45.2344 355.562 46.4531C355.938 47.625 356.406 48.6094 356.969 49.4062C357.578 50.1562 358.398 50.7891 359.43 51.3047C360.461 51.8203 361.68 52.0781 363.086 52.0781C364.773 52.0781 366.836 51.9375 369.273 51.6562C371.711 51.3281 373.867 51 375.742 50.6719C377.664 50.3438 378.672 50.1797 378.766 50.1797ZM354.93 35.1328C361.305 33.3047 366.531 31.3828 370.609 29.3672C370.281 27.8203 369.836 26.6953 369.273 25.9922C368.711 25.2891 367.867 24.9375 366.742 24.9375C363.883 24.9375 361.281 25.9219 358.938 27.8906C356.641 29.8594 355.305 32.2734 354.93 35.1328ZM383.336 48.2109C384.602 48.2109 385.656 48.7734 386.5 49.8984C387.391 50.9766 387.836 52.2188 387.836 53.625C387.836 54.6562 387.578 55.5 387.062 56.1562C386.594 56.7656 385.938 57.0703 385.094 57.0703C383.781 57.0703 382.727 56.5312 381.93 55.4531C381.18 54.375 380.805 53.1094 380.805 51.6562C380.805 50.625 381.016 49.8047 381.438 49.1953C381.906 48.5391 382.539 48.2109 383.336 48.2109Z" fill="black"/>
<path fill-rule="evenodd" clip-rule="evenodd" d="M18.0791 4.78729C13.6619 2.94273 9.53423 4.36061 6.34523 8.81793C5.33047 10.2363 4.56013 11.6294 4.07662 12.9205C3.17026 15.3408 2.8406 16.4835 2.57803 18.1151C2.07288 21.254 2.12656 23.9623 2.80367 29.5032C3.1565 32.3904 3.39397 33.7762 4.03087 36.6649C4.48846 38.7403 4.71752 40.0807 4.98511 42.2489C5.27949 44.6342 5.347 45.4988 5.37165 47.1988C5.392 48.6032 5.4182 49.1187 5.51919 50.1002C5.61903 51.0705 5.63083 51.2536 5.62122 51.6833C5.60641 52.3462 5.50269 53.5563 5.39693 54.2999C5.27743 55.1404 5.30828 55.4668 5.55596 55.9821C5.98309 56.871 7.20605 57.276 8.01084 56.7953C8.10068 56.7416 8.14797 56.728 8.19634 56.742C8.84293 56.9292 9.47564 56.8716 9.93178 56.5839C10.1004 56.4775 10.1042 56.4734 10.6105 55.8423C12.3414 53.6847 14.6107 52.3142 19.5204 50.4617C23.5627 48.9364 25.9989 48.1977 29.9866 47.2883C35.5967 46.0088 37.0968 45.6048 39.783 44.6507C44.7495 42.8864 47.8232 40.4285 49.8767 36.5792C50.5129 35.3866 50.8355 34.2197 50.7684 33.3543C50.6649 32.0209 49.5077 29.4608 48.4991 28.3341C46.4509 26.0461 43.7106 24.5585 40.4787 23.9803C37.4026 23.43 34.1349 23.5921 31.2837 24.4366C28.9488 25.128 25.9753 26.5643 24.1096 27.902C23.9347 28.0275 23.7534 28.1571 23.7068 28.1901L23.6219 28.2502L24.0401 27.4019C24.5262 26.4156 24.6581 26.0774 24.986 24.9761C25.3531 23.7435 25.858 21.3864 26.052 19.9994C26.4357 17.2573 26.279 15.4067 25.4521 12.9153C24.5049 10.0614 23.8104 8.87675 22.2788 7.50286C21.1725 6.51026 19.2894 5.29276 18.0791 4.78729ZM18.7649 8.83755C19.1509 9.07449 19.8611 9.60805 20.2938 9.98613C21.0772 10.6706 21.725 11.8251 22.4213 13.7774C23.2916 16.2174 23.3278 17.7693 22.6117 21.9344C22.0703 25.0826 21.9403 25.5185 20.6632 28.4612C19.3751 31.4298 19.2483 31.8678 19.5178 32.4181C19.8886 33.1754 20.6325 33.3012 21.86 32.8143C22.8733 32.4124 23.4417 32.1552 24.9708 31.4071C27.3149 30.2603 30.2303 28.9579 31.2776 28.5896C32.5135 28.1551 34.1821 27.8012 35.4113 27.7129C37.5755 27.5574 39.0935 27.7087 41.1069 28.2808C41.9571 28.5224 43.2485 29.1181 43.7776 29.5131C45.0481 30.4614 45.2855 30.7424 45.7895 31.8944C46.2732 33.0005 46.2737 33.118 45.7996 34.2588C45.1424 35.8405 44.1391 37.2022 42.7017 38.4632C41.1795 39.7986 38.1885 41.3381 35.1546 42.3479C33.1713 43.008 32.1455 43.2705 27.4903 44.3094C22.888 45.3365 18.7493 46.623 14.5179 48.342C12.3729 49.2134 10.767 50.1382 9.34928 51.3189C9.13479 51.4974 9.12836 51.5009 9.1169 51.4419C8.811 49.8679 8.81134 49.6786 9.12373 47.3479C9.42516 45.0994 9.3186 40.6871 8.89032 37.682C8.8214 37.1983 8.73671 36.6639 8.4626 34.9827C8.1842 33.2752 7.74836 30.1202 7.47562 27.8381C6.94922 23.4334 6.94053 20.4821 7.44649 17.933C8.11999 14.5397 9.31561 12.0317 11.268 9.91702C13.5597 7.4347 15.9249 7.09414 18.7649 8.83755Z" fill="url(#paint0_linear_3_11)"/>
<defs>
<linearGradient id="paint0_linear_3_11" x1="8.58593" y1="7.37852" x2="40.1619" y2="53.6315" gradientUnits="userSpaceOnUse">
<stop stop-color="#E4A0B7"/>
<stop offset="1" stop-color="#EFCFD4"/>
</linearGradient>
</defs>
</svg>
